<?xml version="1.0" encoding="UTF-8" standalone="no"?>
<!-- Generator: Adobe Illustrator 19.0.0, SVG Export Plug-In . SVG Version: 6.00 Build 0)  -->

<svg
   version="1.1"
   id="Layer_1"
   x="0px"
   y="0px"
   viewBox="0 0 512 512"
   style="enable-background:new 0 0 512 512;"
   xml:space="preserve"
   sodipodi:docname="beer-svgrepo-com_empty.svg"
   inkscape:version="1.2.2 (b0a8486541, 2022-12-01)"
   xmlns:inkscape="http://www.inkscape.org/namespaces/inkscape"
   xmlns:sodipodi="http://sodipodi.sourceforge.net/DTD/sodipodi-0.dtd"
   xmlns="http://www.w3.org/2000/svg"
   xmlns:svg="http://www.w3.org/2000/svg"><defs
   id="defs49" /><sodipodi:namedview
   id="namedview47"
   pagecolor="#ffffff"
   bordercolor="#000000"
   borderopacity="0.25"
   inkscape:showpageshadow="2"
   inkscape:pageopacity="0.0"
   inkscape:pagecheckerboard="0"
   inkscape:deskcolor="#d1d1d1"
   showgrid="false"
   inkscape:zoom="1.6152344"
   inkscape:cx="255.69045"
   inkscape:cy="256.30955"
   inkscape:window-width="1920"
   inkscape:window-height="1007"
   inkscape:window-x="0"
   inkscape:window-y="0"
   inkscape:window-maximized="1"
   inkscape:current-layer="Layer_1" />


<g
   id="g14">
	<path
   style="fill:#573A32;"
   d="M147.2,243.2c-7.074,0-12.8,5.726-12.8,12.8v179.2c0,7.074,5.726,12.8,12.8,12.8   c7.074,0,12.8-5.726,12.8-12.8V256C160,248.926,154.274,243.2,147.2,243.2z"
   id="path6" />
	<path
   style="fill:#573A32;"
   d="M224,243.2c-7.074,0-12.8,5.726-12.8,12.8v179.2c0,7.074,5.726,12.8,12.8,12.8   c7.074,0,12.8-5.726,12.8-12.8V256C236.8,248.926,231.074,243.2,224,243.2z"
   id="path8" />
	<path
   style="fill:#573A32;"
   d="M300.8,243.2c-7.074,0-12.8,5.726-12.8,12.8v179.2c0,7.074,5.726,12.8,12.8,12.8   s12.8-5.726,12.8-12.8V256C313.6,248.926,307.874,243.2,300.8,243.2z"
   id="path10" />
	<path
   style="fill:#573A32;"
   d="M121.6,512h204.8c28.228,0,51.2-22.972,51.2-51.2v-25.6H416c28.228,0,51.2-22.972,51.2-51.2V230.4   c0-28.228-22.972-51.2-51.2-51.2h-38.4v-14.345c15.377-10.069,25.6-27.383,25.6-47.095c0-26.342-18.176-48.521-42.65-54.639   C347.52,43.238,325.197,30.72,300.8,30.72c-8.465,0-16.768,1.476-24.585,4.326c-6.775-2.833-14.071-4.326-21.495-4.326   c-3.627,0-7.219,0.358-10.752,1.058C234.829,12.979,215.543,0,193.28,0c-21.888,0-40.9,12.553-50.219,30.839   c-22.767,1.323-43.324,13.525-55.612,32.282C62.976,69.239,44.8,91.418,44.8,117.76c0,19.712,10.223,37.026,25.6,47.095V460.8   C70.4,489.028,93.372,512,121.6,512z M352,460.8c0,14.14-11.46,25.6-25.6,25.6H121.6c-14.14,0-25.6-11.46-25.6-25.6V173.559   c1.715,0.154,3.371,0.521,5.12,0.521c3.627,0,7.228-0.358,10.752-1.058c9.139,18.799,28.425,31.778,50.688,31.778   c9.609,0,18.987-2.526,27.247-7.125c10.769,4.693,22.323,7.125,34.193,7.125c26.095,0,50.492-11.861,66.799-31.445   c3.302,0.486,6.647,0.725,10.001,0.725c8.465,0,16.768-1.476,24.585-4.335c6.775,2.842,14.071,4.335,21.495,4.335   c1.758,0,3.405-0.358,5.12-0.521V460.8z M416,204.8c14.14,0,25.6,11.46,25.6,25.6V384c0,14.14-11.46,25.6-25.6,25.6h-38.4V204.8   H416z M101.12,87.04c0.939,0,1.818,0.196,2.739,0.273c6.272-17.997,23.202-30.993,43.341-30.993c5.521,0,10.743,1.135,15.65,2.91   c-0.094-0.973-0.29-1.911-0.29-2.91c0-16.964,13.756-30.72,30.72-30.72S224,39.356,224,56.32c6.238,0,12.134,1.203,17.809,2.935   c3.934-1.835,8.277-2.935,12.911-2.935c7.834,0,14.916,3.021,20.343,7.859c7.347-4.966,16.205-7.859,25.737-7.859   c20.139,0,37.069,12.996,43.341,30.993c0.913-0.085,1.801-0.273,2.739-0.273c16.964,0,30.72,13.756,30.72,30.72   s-13.756,30.72-30.72,30.72c-7.842,0-14.916-3.021-20.343-7.859c-7.347,4.958-16.205,7.859-25.737,7.859   c-7.612,0-14.686-2.022-21.009-5.291C270.106,164.395,248.832,179.2,224,179.2c-13.867,0-26.53-4.77-36.813-12.518   c-5.589,7.552-14.498,12.518-24.627,12.518c-16.964,0-30.72-13.756-30.72-30.72c0-0.939,0.196-1.818,0.273-2.739   c-3.772-1.314-7.398-2.927-10.658-5.12c-5.427,4.83-12.501,7.859-20.343,7.859c-16.964,0-30.72-13.756-30.72-30.72   S84.156,87.04,101.12,87.04z"
   id="path12" />
</g>
<g
   id="g16">
</g>
<g
   id="g18">
</g>
<g
   id="g20">
</g>
<g
   id="g22">
</g>
<g
   id="g24">
</g>
<g
   id="g26">
</g>
<g
   id="g28">
</g>
<g
   id="g30">
</g>
<g
   id="g32">
</g>
<g
   id="g34">
</g>
<g
   id="g36">
</g>
<g
   id="g38">
</g>
<g
   id="g40">
</g>
<g
   id="g42">
</g>
<g
   id="g44">
</g>
</svg>
